<svg xmlns="http://www.w3.org/2000/svg" viewBox="0 0 54 54">
  <defs>
    <style>
      .cls-1 {
        fill: #c6c7d0;
      }

      .cls-2 {
        fill: #fff;
        fill-rule: evenodd;
      }
    </style>
  </defs>
  <path class="cls-2" d="m27,48.54c11.9,0,21.54-9.64,21.54-21.54S38.9,5.46,27,5.46,5.46,15.1,5.46,27s9.64,21.54,21.54,21.54Z"/>
  <path class="cls-1" d="m49.2,27c0,12.26-9.94,22.2-22.2,22.2S4.8,39.26,4.8,27,14.74,4.8,27,4.8s22.2,9.94,22.2,22.2Z"/>
  <g>
    <path d="m27.01,40.63c-.37-.01-.73-.01-1.09-.03-.19,0-.38-.04-.57-.06-.21-.02-.43-.05-.64-.08-.03,0-.07-.01-.1-.02-.13-.06-.28-.07-.42-.09-.01,0-.03,0-.04,0-.22-.06-.44-.11-.66-.17-.04,0-.07-.03-.11-.04-.19-.05-.39-.1-.58-.15-.17-.05-.33-.12-.5-.18-.15-.06-.31-.11-.46-.17-.03,0-.05-.02-.08-.04-.03-.01-.05-.03-.08-.04-.17-.05-.33-.14-.49-.22-.01,0-.03-.01-.04-.02-.12-.05-.24-.1-.35-.16-.09-.04-.17-.1-.26-.15-.12-.07-.24-.13-.36-.19-.1-.06-.19-.12-.29-.18-.01,0-.02-.02-.03-.02-.08-.05-.16-.09-.24-.15-.21-.14-.41-.29-.62-.42-.2-.13-.37-.3-.57-.43-.08-.06-.15-.13-.23-.2-.38-.32-.75-.66-1.09-1.03-.12-.12-.24-.24-.35-.38-.18-.23-.39-.44-.55-.68-.07-.11-.16-.2-.24-.31-.07-.09-.14-.19-.2-.28-.17-.26-.33-.52-.5-.78-.08-.13-.16-.27-.23-.41-.1-.19-.21-.38-.3-.57-.06-.12-.11-.25-.17-.38-.04-.09-.08-.17-.12-.26-.06-.14-.14-.28-.18-.42-.05-.15-.11-.29-.16-.44-.02-.09-.04-.17-.09-.25,0,0,0,0,0,0-.05-.18-.1-.35-.15-.53-.02-.06-.04-.12-.05-.18-.02-.09-.04-.18-.07-.28-.01-.06-.03-.12-.05-.18-.02-.11-.05-.22-.07-.32,0-.04,0-.08-.02-.12-.08-.25-.1-.51-.12-.77,0-.07-.04-.15-.05-.22-.02-.2-.03-.4-.05-.59-.05-.57-.02-1.14-.02-1.71,0-.23.03-.45.04-.68,0-.16.03-.31.07-.47.02-.09.02-.19.03-.29.01-.11.03-.21.04-.32.03-.16.07-.33.1-.49,0-.03,0-.06.02-.09.05-.11.06-.23.08-.34.04-.17.09-.35.14-.52.02-.08.05-.17.08-.25.05-.15.11-.31.16-.46.03-.09.08-.17.09-.27,0,0,0-.01,0-.02.06-.14.12-.27.18-.41.06-.13.11-.27.17-.4.05-.11.1-.22.16-.32.06-.11.11-.23.17-.34.07-.13.14-.26.22-.39.06-.1.11-.2.17-.3.05-.08.1-.16.15-.24.07-.12.16-.22.22-.34.02-.04.06-.08.08-.11.15-.2.28-.41.45-.6.05-.06.09-.12.14-.18.1-.13.21-.25.32-.37.09-.11.19-.21.28-.32.26-.3.54-.58.84-.84.15-.13.3-.27.45-.4.12-.1.25-.2.37-.3.06-.05.11-.09.17-.13.17-.12.34-.25.52-.37.14-.1.29-.2.43-.29.1-.07.2-.12.31-.18.11-.06.22-.13.33-.19.06-.03.12-.06.18-.1.16-.09.32-.19.49-.26.17-.07.33-.15.5-.23.03-.02.07-.02.1-.03.04-.01.08-.03.12-.05.06-.03.13-.05.19-.08.02,0,.04,0,.05-.02.13-.05.26-.11.38-.16.01,0,.02-.01.03-.02.17-.05.34-.11.5-.16.06-.02.12-.03.17-.05.1-.03.2-.05.29-.08,0,0,0,0,0,0,.2-.09.42-.1.62-.17.02,0,.04-.02.06-.02.21-.04.42-.07.63-.11.27-.04.54-.08.82-.12.17-.02.34-.03.51-.04.46-.03.92-.03,1.38-.02.25,0,.5.02.75.04.19,0,.37.04.55.07.17.03.34.04.51.06.1.01.2.04.3.06.19.03.38.06.57.12.05.02.11.02.16.03.09,0,.17.03.25.07.08.03.16.04.24.06.06.02.12.04.18.06,0,0,0,0,0,0,.18.06.36.12.54.17.04.01.08.02.12.04.06.02.12.05.19.07.13.05.26.09.39.14.12.05.24.11.37.17.03.01.07.02.1.04.05.02.09.04.14.06.04.02.08.04.12.05.13.06.25.12.38.19.08.04.15.08.22.12.11.06.22.11.32.18.11.06.21.13.31.19.07.04.14.09.21.13.18.12.37.23.54.36.2.15.41.28.59.44.11.1.25.19.36.29.09.07.18.15.26.23.23.22.46.43.69.65.1.1.19.21.29.32.11.12.22.23.32.35.09.1.18.22.26.32.05.07.11.13.16.2.11.15.22.3.33.46.1.14.2.29.3.43.06.1.12.2.18.3.09.15.18.3.27.46.07.13.14.26.2.38.06.11.12.23.18.34.06.12.11.24.17.36,0,0,0,.02,0,.03.07.11.11.23.15.36.03.08.06.15.09.23.01.03.02.06.04.09,0,.02.02.04.03.06.05.13.09.26.14.39.07.21.14.42.21.63,0,.02.02.04.02.06.03.23.12.45.16.68.04.22.11.43.13.66.11.32.1.65.15.98.02.17.04.34.06.52,0,.12,0,.24,0,.36,0,.17.02.34.02.51,0,.24-.01.48-.02.72,0,.11-.01.21-.02.32,0,.01,0,.03,0,.04,0,.12-.01.23-.03.35-.03.14-.03.28-.05.41-.01.1-.02.2-.03.29-.01.07-.03.15-.05.22-.01.06-.03.13-.04.19-.01.14-.04.27-.08.4-.02.07-.03.15-.05.23-.03.11-.06.23-.08.34-.04.2-.12.38-.17.57-.02.07-.04.14-.06.21,0,.02-.02.03-.02.05-.05.15-.1.3-.15.46,0,0,0,.02,0,.03-.05.13-.11.26-.16.39-.02.05-.03.1-.05.14-.02.05-.04.1-.07.15,0,.02-.02.03-.03.05-.05.12-.1.23-.15.35-.04.09-.09.18-.13.26-.03.05-.07.07-.13.05-.05-.02-.1-.04-.14-.07-.16-.13-.32-.25-.46-.4-.15-.15-.28-.31-.42-.46-.11-.12-.17-.28-.26-.42-.08-.13-.12-.26-.17-.4-.04-.13-.06-.27-.08-.41-.02-.2.01-.39.04-.58,0-.02,0-.03.01-.05.11-.25.16-.52.23-.79.06-.21.08-.42.13-.62.06-.25.08-.5.11-.75.01-.13.04-.27.06-.4,0-.03,0-.05,0-.08,0-.34.03-.69.02-1.03,0-.23-.03-.45-.05-.68-.02-.22-.04-.43-.07-.65-.02-.15-.05-.29-.08-.44-.05-.26-.1-.51-.16-.77-.01-.06-.03-.12-.05-.17,0,0,0-.01,0-.02-.06-.18-.11-.36-.17-.54,0-.03-.01-.06-.02-.08-.08-.21-.16-.42-.24-.63-.05-.13-.12-.25-.17-.37,0-.01-.01-.03-.02-.04-.08-.23-.2-.43-.32-.64-.07-.11-.12-.23-.19-.35-.04-.07-.09-.15-.14-.22-.12-.18-.23-.35-.36-.53-.15-.22-.31-.43-.48-.64-.19-.23-.39-.46-.61-.67-.18-.18-.36-.36-.54-.54-.15-.14-.3-.28-.47-.4-.13-.09-.25-.19-.37-.29-.08-.06-.17-.12-.25-.18-.16-.11-.32-.22-.48-.33-.06-.04-.13-.07-.19-.11-.1-.06-.2-.12-.3-.17-.1-.05-.2-.11-.3-.16-.12-.06-.24-.12-.36-.18-.14-.07-.29-.13-.43-.2-.02-.01-.05-.02-.07-.03-.02,0-.04,0-.05-.02-.15-.06-.29-.12-.44-.18,0,0-.01,0-.02,0-.16-.03-.31-.1-.47-.15-.11-.03-.23-.04-.34-.1-.02-.01-.05-.02-.07-.02-.14-.04-.28-.07-.42-.1-.14-.03-.27-.04-.41-.08-.22-.05-.44-.07-.67-.1-.11-.01-.21-.04-.32-.06-.05,0-.1,0-.15-.01-.05,0-.1,0-.14,0-.43-.04-.85-.01-1.28-.02-.14,0-.28,0-.42.02-.09,0-.17.03-.26.04-.11.02-.21.03-.32.04-.22.02-.44.07-.66.11-.08.02-.16.03-.24.05-.06.01-.11.03-.17.05-.06.02-.12.03-.17.04-.1.01-.21.03-.3.08-.03.01-.06.02-.09.03-.09.03-.18.06-.27.09,0,0-.02,0-.03.01-.14.03-.28.08-.41.14-.16.07-.32.13-.47.19-.01,0-.02.01-.03.02-.15.03-.28.12-.42.18-.12.05-.23.12-.34.18-.11.06-.23.11-.33.18-.15.09-.29.18-.43.27-.02.01-.04.03-.06.04-.13.05-.22.14-.33.22-.05.04-.1.06-.15.1-.19.14-.39.28-.58.43-.11.08-.21.17-.31.27-.28.27-.56.53-.83.81-.21.22-.42.45-.6.71-.09.12-.19.24-.28.36,0,.01-.02.02-.03.04-.04.12-.14.2-.21.3,0,.01-.02.02-.02.03-.14.26-.32.5-.46.76-.09.16-.18.33-.26.49-.06.12-.11.26-.16.38-.04.09-.08.17-.12.26-.06.13-.11.27-.17.4,0,0,0,0,0,0-.06.19-.12.38-.18.58-.01.03,0,.07-.02.1-.06.12-.08.25-.11.38,0,.02,0,.03-.01.05-.08.15-.08.32-.11.49,0,.02,0,.05-.02.07-.08.17-.07.37-.1.55-.02.14-.04.27-.06.41-.02.13-.03.26-.03.39-.01.27-.02.55-.02.82,0,.3.03.61.04.91,0,.18.04.36.07.53.02.13.03.26.04.4,0,.03,0,.07.02.1.07.17.08.35.11.53,0,.03.01.05.02.08.03.09.05.17.08.26.02.07.04.14.07.22,0,0,0,.01,0,.02.03.19.1.36.16.54.02.06.04.12.06.18.02.06.04.11.06.17.02.04.03.08.05.12,0,.01.01.02.02.03.06.13.11.27.17.4.01.03.03.07.05.1.01.02.03.04.04.07.06.17.15.32.24.47.09.15.17.32.26.47.06.1.12.19.19.28.02.02.03.05.04.07.04.1.11.19.18.27.02.02.04.04.05.06.04.12.13.2.21.29.08.1.16.21.24.32.11.13.22.26.33.39.25.3.53.56.81.83.12.12.25.21.37.32.16.15.34.28.51.4.19.13.37.27.56.41.08.06.17.1.25.15.11.07.23.14.34.2.08.05.16.09.24.13.18.09.37.18.55.27.13.06.27.13.4.19.01,0,.03.01.04.02.2.07.39.15.59.22.04.01.07.02.11.03.06.02.12.05.19.06.21.06.4.15.62.18.07,0,.14.04.21.06.04.01.08.03.12.04.22.04.44.08.66.12.12.02.25.02.37.04.12.02.24.04.36.05.03,0,.06.02.09.02.21,0,.43.02.64.02.21,0,.42,0,.64,0,.34,0,.68-.03,1.01-.08.16-.03.32-.04.48-.07.18-.03.36-.06.53-.1.2-.05.4-.1.61-.15.08-.02.16-.04.25-.06.09-.02.18-.05.27-.09.11-.04.23-.05.34-.06.13,0,.26,0,.39,0,.15,0,.3.03.43.09.03.01.05.02.08.03.16.05.3.14.44.22.27.15.48.37.69.59.09.09.17.18.25.27.06.07.12.14.17.21.06.07.05.15-.02.21-.01.01-.02.02-.04.03-.1.05-.2.1-.31.15-.06.03-.12.05-.18.08-.12.05-.23.1-.35.15-.05.02-.11.05-.16.07-.04.02-.08.03-.11.05-.05.02-.09.04-.14.06,0,0-.02.01-.03.01-.17.06-.33.11-.5.17-.06.02-.13.04-.19.06-.02,0-.04.02-.06.03-.18.05-.36.1-.54.15-.03,0-.07,0-.1.02-.12.06-.25.08-.38.1-.05,0-.09.02-.14.03-.13.03-.26.06-.39.08-.1.02-.2.05-.31.06-.16.02-.32.04-.48.06-.12.02-.24.02-.36.05-.15.04-.3.04-.45.04-.34.02-.68.02-1.01.03Z"/>
    <path d="m39.06,37.89c.04.18-.03.36-.13.53-.1.17-.21.34-.4.44-.08.04-.16.09-.26.11,0,0-.01,0-.02,0-.16.09-.33.07-.5.07-.02,0-.03,0-.05,0-.2-.07-.4-.13-.57-.27-.26-.22-.49-.47-.73-.71-.29-.28-.57-.57-.85-.85-.42-.42-.85-.85-1.27-1.28-.45-.45-.9-.9-1.35-1.35-.38-.38-.76-.76-1.14-1.14-.39-.39-.78-.77-1.16-1.16-.26-.26-.52-.52-.78-.78-.14-.14-.26-.3-.33-.49-.06-.16-.07-.34-.06-.51,0-.05.01-.1.02-.15,0-.07.02-.14.06-.2.05-.08.1-.17.15-.25.11-.17.27-.31.46-.38.21-.08.43-.15.66-.07.03.01.07.02.1.02.08,0,.15.05.23.08.24.1.39.29.57.46.38.38.76.76,1.14,1.14.49.49.99.99,1.48,1.48.49.49.99.99,1.48,1.48.45.45.9.9,1.35,1.35.45.45.91.91,1.36,1.36.08.08.17.16.24.24.07.09.14.18.19.28.09.17.11.34.1.54Z"/>
  </g>
</svg>